#Comment line ignore any data following # character 
#Hierarchical Translation and Rotation (.htr) file 
[Header]	
#Header keywords are followed by a single value 
FileType HTR		#Single word string
DataType HTRS		#Translation followed by rotation and scale data
FileVersion 1		#integer
NumSegments 64		#integer
NumFrames 3		#integer
DataFrameRate 30		#integer, data frame rate in this file
EulerRotationOrder ZYX
CalibrationUnits mm
RotationUnits Degrees
GlobalAxisofGravity Y
BoneLengthAxis Y
ScaleFactor 1.00
[SegmentNames&Hierarchy]
#CHILD	PARENT
Pinger_Root GLOBAL
Pelvis Pinger_Root
L_Hip Pelvis
R_Hip Pelvis
Rear_Leg01 Pelvis
Spine1 Pelvis
L_Leg01 L_Hip
L_Leg02 L_Leg01
L_Leg03 L_Leg02
L_Foot L_Leg03
L_Toe1_01 L_Foot
L_Toe2_01 L_Foot
L_Toe3_01 L_Foot
planeAlignerLeft L_Foot
L_Toe1_02 L_Toe1_01
L_Toe1_03 L_Toe1_02
L_Toe2_02 L_Toe2_01
L_Toe2_03 L_Toe2_02
L_Toe3_02 L_Toe3_01
L_Toe3_03 L_Toe3_02
planeLockWeightLeft planeAlignerLeft
R_Leg01 R_Hip
R_Leg02 R_Leg01
R_Leg03 R_Leg02
R_Foot R_Leg03
planeAlignerRight R_Foot
R_Toe1_01 R_Foot
R_Toe2_01 R_Foot
R_Toe3_01 R_Foot
planeLockWeightRight planeAlignerRight
R_Toe1_02 R_Toe1_01
R_Toe1_03 R_Toe1_02
R_Toe2_02 R_Toe2_01
R_Toe2_03 R_Toe2_02
R_Toe3_02 R_Toe3_01
R_Toe3_03 R_Toe3_02
Rear_Leg02 Rear_Leg01
Rear_Leg03 Rear_Leg02
Rear_Leg04 Rear_Leg03
Rear_Foot Rear_Leg04
planeAlignerCenter Rear_Foot
Rear_Toe1_01 Rear_Foot
Rear_Toe2_01 Rear_Foot
Rear_Toe3_01 Rear_Foot
planeLockWeightCenter planeAlignerCenter
Rear_Toe1_02 Rear_Toe1_01
Rear_Toe1_03 Rear_Toe1_02
Rear_Toe2_02 Rear_Toe2_01
Rear_Toe2_03 Rear_Toe2_02
Rear_Toe3_02 Rear_Toe3_01
Rear_Toe3_03 Rear_Toe3_02
Back_Bone Spine1
Head Spine1
Motor_Bone Back_Bone
Ping_Mechanism Back_Bone
BN_LookIK Head
bottomMouth Head
L_Mouth01 Head
L_mouthFront Head
mouthGun Head
R_Mouth01 Head
R_mouthFront Head
TopMouth Head
weapon_bone Head
[BasePosition]
#SegmentName Tx, Ty, Tz, Rx, Ry, Rz, BoneLength
Pinger_Root 0.000000 0.000000 0.000000 -90.000000 0.000000 0.000000 10.000000 
Pelvis 0.000000 0.000000 0.000000 0.000000 0.000000 0.000000 10.000000 
L_Hip 0.000000 0.000000 0.000000 0.000000 0.000000 0.000000 10.000000 
R_Hip 0.000000 0.000000 0.000000 0.000000 0.000000 0.000000 10.000000 
Rear_Leg01 0.000000 0.000000 0.000000 0.000000 0.000000 0.000000 10.000000 
Spine1 0.000000 0.000000 0.000000 0.000000 0.000000 0.000000 10.000000 
L_Leg01 0.000000 0.000000 0.000000 0.000000 0.000000 0.000000 10.000000 
L_Leg02 0.000000 0.000000 0.000000 0.000000 0.000000 0.000000 10.000000 
L_Leg03 0.000000 0.000000 0.000000 0.000000 0.000000 0.000000 10.000000 
L_Foot 0.000000 0.000000 0.000000 0.000000 0.000000 0.000000 10.000000 
L_Toe1_01 0.000000 0.000000 0.000000 0.000000 0.000000 0.000000 10.000000 
L_Toe2_01 0.000000 0.000000 0.000000 0.000000 0.000000 0.000000 10.000000 
L_Toe3_01 0.000000 0.000000 0.000000 0.000000 0.000000 0.000000 10.000000 
planeAlignerLeft 0.000000 0.000000 0.000000 0.000000 0.000000 0.000000 10.000000 
L_Toe1_02 0.000000 0.000000 0.000000 0.000000 0.000000 0.000000 10.000000 
L_Toe1_03 0.000000 0.000000 0.000000 0.000000 0.000000 0.000000 10.000000 
L_Toe2_02 0.000000 0.000000 0.000000 0.000000 0.000000 0.000000 10.000000 
L_Toe2_03 0.000000 0.000000 0.000000 0.000000 0.000000 0.000000 10.000000 
L_Toe3_02 0.000000 0.000000 0.000000 0.000000 0.000000 0.000000 10.000000 
L_Toe3_03 0.000000 0.000000 0.000000 0.000000 0.000000 0.000000 10.000000 
planeLockWeightLeft 0.000000 0.000000 0.000000 0.000000 0.000000 0.000000 10.000000 
R_Leg01 0.000000 0.000000 0.000000 0.000000 0.000000 0.000000 10.000000 
R_Leg02 0.000000 0.000000 0.000000 0.000000 0.000000 0.000000 10.000000 
R_Leg03 0.000000 0.000000 0.000000 0.000000 0.000000 0.000000 10.000000 
R_Foot 0.000000 0.000000 0.000000 0.000000 0.000000 0.000000 10.000000 
planeAlignerRight 0.000000 0.000000 0.000000 0.000000 0.000000 0.000000 10.000000 
R_Toe1_01 0.000000 0.000000 0.000000 0.000000 0.000000 0.000000 10.000000 
R_Toe2_01 0.000000 0.000000 0.000000 0.000000 0.000000 0.000000 10.000000 
R_Toe3_01 0.000000 0.000000 0.000000 0.000000 0.000000 0.000000 10.000000 
planeLockWeightRight 0.000000 0.000000 0.000000 0.000000 0.000000 0.000000 10.000000 
R_Toe1_02 0.000000 0.000000 0.000000 0.000000 0.000000 0.000000 10.000000 
R_Toe1_03 0.000000 0.000000 0.000000 0.000000 0.000000 0.000000 10.000000 
R_Toe2_02 0.000000 0.000000 0.000000 0.000000 0.000000 0.000000 10.000000 
R_Toe2_03 0.000000 0.000000 0.000000 0.000000 0.000000 0.000000 10.000000 
R_Toe3_02 0.000000 0.000000 0.000000 0.000000 0.000000 0.000000 10.000000 
R_Toe3_03 0.000000 0.000000 0.000000 0.000000 0.000000 0.000000 10.000000 
Rear_Leg02 0.000000 0.000000 0.000000 0.000000 0.000000 0.000000 10.000000 
Rear_Leg03 0.000000 0.000000 0.000000 0.000000 0.000000 0.000000 10.000000 
Rear_Leg04 0.000000 0.000000 0.000000 0.000000 0.000000 0.000000 10.000000 
Rear_Foot 0.000000 0.000000 0.000000 0.000000 0.000000 0.000000 10.000000 
planeAlignerCenter 0.000000 0.000000 0.000000 0.000000 0.000000 0.000000 10.000000 
Rear_Toe1_01 0.000000 0.000000 0.000000 0.000000 0.000000 0.000000 10.000000 
Rear_Toe2_01 0.000000 0.000000 0.000000 0.000000 0.000000 0.000000 10.000000 
Rear_Toe3_01 0.000000 0.000000 0.000000 0.000000 0.000000 0.000000 10.000000 
planeLockWeightCenter 0.000000 0.000000 0.000000 0.000000 0.000000 0.000000 10.000000 
Rear_Toe1_02 0.000000 0.000000 0.000000 0.000000 0.000000 0.000000 10.000000 
Rear_Toe1_03 0.000000 0.000000 0.000000 0.000000 0.000000 0.000000 10.000000 
Rear_Toe2_02 0.000000 0.000000 0.000000 0.000000 0.000000 0.000000 10.000000 
Rear_Toe2_03 0.000000 0.000000 0.000000 0.000000 0.000000 0.000000 10.000000 
Rear_Toe3_02 0.000000 0.000000 0.000000 0.000000 0.000000 0.000000 10.000000 
Rear_Toe3_03 0.000000 0.000000 0.000000 0.000000 0.000000 0.000000 10.000000 
Back_Bone 0.000000 0.000000 0.000000 0.000000 0.000000 0.000000 10.000000 
Head 0.000000 0.000000 0.000000 0.000000 0.000000 0.000000 10.000000 
Motor_Bone 0.000000 0.000000 0.000000 0.000000 0.000000 0.000000 10.000000 
Ping_Mechanism 0.000000 0.000000 0.000000 0.000000 0.000000 0.000000 10.000000 
BN_LookIK 0.000000 0.000000 0.000000 0.000000 0.000000 0.000000 10.000000 
bottomMouth 0.000000 0.000000 0.000000 0.000000 0.000000 0.000000 10.000000 
L_Mouth01 0.000000 0.000000 0.000000 0.000000 0.000000 0.000000 10.000000 
L_mouthFront 0.000000 0.000000 0.000000 0.000000 0.000000 0.000000 10.000000 
mouthGun 0.000000 0.000000 0.000000 0.000000 0.000000 0.000000 10.000000 
R_Mouth01 0.000000 0.000000 0.000000 0.000000 0.000000 0.000000 10.000000 
R_mouthFront 0.000000 0.000000 0.000000 0.000000 0.000000 0.000000 10.000000 
TopMouth 0.000000 0.000000 0.000000 0.000000 0.000000 0.000000 10.000000 
weapon_bone 0.000000 0.000000 0.000000 0.000000 0.000000 0.000000 10.000000 
#Beginning of Data. Separated by tabs
#Fr	Tx	Ty	Tz	Rx	Ry	Rz	SF
[Pinger_Root]
45 0.000000 -5703.701660 0.000000 -0.000075 -0.000000 -0.000020 5703.701660
46 0.000000 -5833.331543 0.000000 -0.000075 -0.000000 -0.000020 5833.331543
47 0.000000 -5962.961426 0.000000 -0.000075 -0.000000 -0.000020 5962.961426
[Pelvis]
45 527.139954 205.237595 4902.808105 42.345451 -77.324478 -47.756790 4935.334473
46 543.276672 222.648834 4886.656738 37.329575 -76.000381 -41.076786 4921.802246
47 552.273376 242.854279 4884.045898 34.402153 -75.115494 -36.311443 4921.167969
[L_Hip]
45 5.766392 125.831482 872.656799 -178.250168 -81.786369 87.376007 881.701050
46 5.766392 125.831482 872.656799 -178.250168 -81.786369 87.376007 881.701050
47 5.766392 125.831482 872.656799 -178.250168 -81.786369 87.376007 881.701050
[R_Hip]
45 5.765438 125.836372 -872.654907 -1.748770 81.786041 87.376961 881.699829
46 5.765438 125.836372 -872.654907 -1.748770 81.786041 87.376961 881.699829
47 5.765438 125.836372 -872.654907 -1.748770 81.786041 87.376961 881.699829
[Rear_Leg01]
45 -192.298416 -925.602966 -0.001907 171.162994 0.743576 164.166214 945.367432
46 -192.298416 -925.602966 -0.001907 172.013199 3.422187 167.524734 945.367432
47 -192.298416 -925.602966 -0.001907 174.435593 5.725707 173.539474 945.367432
[Spine1]
45 290.604584 5.007505 0.000477 -0.232319 -10.484776 27.200335 290.647736
46 290.604584 5.007505 0.000477 -2.145461 -11.581294 26.823753 290.647736
47 290.604584 5.007505 0.000477 -3.965245 -12.059693 26.623981 290.647736
[L_Leg01]
45 761.932007 -0.002384 -0.069261 61.231956 26.128874 -81.960045 761.932068
46 761.932007 -0.002384 -0.069261 63.134697 23.811472 -83.309090 761.932068
47 761.932007 -0.002384 -0.069261 65.517960 21.977274 -84.641968 761.932068
[L_Leg02]
45 1441.140503 -0.000954 -0.000715 -1.306355 0.831636 -70.100662 1441.140503
46 1441.140503 -0.000954 -0.000715 -1.326955 0.811944 -69.979958 1441.140503
47 1441.140503 -0.000954 -0.000715 -1.350167 0.786357 -67.898155 1441.140503
[L_Leg03]
45 1686.963989 -0.000715 -0.000954 0.115737 -0.009985 79.047440 1686.963989
46 1686.963989 -0.000715 -0.000954 0.110254 -0.009945 80.292969 1686.963989
47 1686.963989 -0.000715 -0.000954 0.104773 -0.009785 81.538467 1686.963989
[L_Foot]
45 3041.570068 -30.715107 11.297464 -26.588036 6.240028 84.262894 3041.746094
46 3041.570068 -30.715107 11.297464 -25.869555 6.548678 81.447906 3041.746094
47 3041.570068 -30.715107 11.297464 -24.895336 7.319997 77.749359 3041.746094
[L_Toe1_01]
45 -188.216690 -224.732346 -21.137953 89.226913 -2.122470 -157.877899 293.899567
46 -188.216690 -224.732346 -21.137953 89.186066 -1.862056 -158.919525 293.899567
47 -188.216690 -224.732346 -21.137953 89.163811 -1.285969 -160.420700 293.899567
[L_Toe2_01]
45 200.746536 -219.926590 148.838394 -76.712189 -8.894067 -53.170017 332.896027
46 200.746536 -219.926590 148.838394 -76.731422 -9.397520 -52.413525 332.896027
47 200.746536 -219.926590 148.838394 -77.120529 -11.022108 -48.934078 332.896027
[L_Toe3_01]
45 188.832520 -219.859131 -191.078659 -107.223343 10.826044 -55.312607 347.140900
46 188.832520 -219.859131 -191.078659 -107.336510 11.965747 -54.410637 347.140900
47 188.832520 -219.859131 -191.078659 -107.221817 15.118653 -51.211830 347.140900
[planeAlignerLeft]
45 112.938843 -749.299683 0.040283 0.000000 -90.000000 -90.001900 757.763306
46 75.458336 -725.901550 -3.887269 0.000000 -90.000000 -90.001900 729.823364
47 -7.006496 -674.423340 -12.527944 0.000000 -90.000000 -90.001900 674.576050
[L_Toe1_02]
45 413.761139 0.000477 0.000000 0.001424 -20.961100 0.001424 413.761139
46 413.761139 0.000477 0.000000 0.001418 -21.675711 0.001418 413.761139
47 413.761139 0.000477 0.000000 0.001405 -23.337227 0.001405 413.761139
[L_Toe1_03]
45 464.317322 0.000358 -0.000089 0.043951 86.939568 0.043951 464.317322
46 464.317322 0.000358 -0.000089 0.023239 84.210228 0.023239 464.317322
47 464.317322 0.000358 -0.000089 0.010266 76.871689 0.010266 464.317322
[L_Toe2_02]
45 342.235809 -0.000477 0.000238 -0.008632 -64.891136 0.007454 342.235809
46 342.235809 -0.000477 0.000238 0.001192 -69.613335 0.001193 342.235809
47 342.235809 -0.000477 0.000238 0.001182 -76.375603 0.001182 342.235809
[L_Toe2_03]
45 420.210846 -0.000715 0.000000 -0.001414 69.250450 -0.004969 420.210846
46 420.210846 -0.000715 0.000000 0.011942 78.720680 0.011942 420.210846
47 420.210846 -0.000715 0.000000 -179.992935 82.528450 -179.989441 420.210846
[L_Toe3_02]
45 329.270111 0.000954 0.000000 -0.010876 -70.440697 0.009710 329.270111
46 329.270111 0.000954 0.000000 0.001185 -74.164803 0.001185 329.270111
47 329.270111 0.000954 0.000000 0.001178 -79.782288 0.001178 329.270111
[L_Toe3_03]
45 439.137451 -0.001907 0.000954 -0.002458 74.355110 -0.005988 439.137451
46 439.137451 -0.001907 0.000954 0.017870 82.468941 0.017870 439.137451
47 439.137451 -0.001907 0.000954 -179.994156 81.323418 -179.990646 439.137451
[planeLockWeightLeft]
45 999.999329 0.098267 0.076179 -0.011826 -0.004376 0.005620 999.999329
46 999.999329 0.098267 0.076183 -0.011826 -0.004376 0.005620 999.999329
47 999.999329 0.098267 0.076186 -0.011826 -0.004376 0.005620 999.999329
[R_Leg01]
45 761.455627 -0.001907 -0.000358 115.955246 -35.964127 59.073460 761.455688
46 761.455627 -0.001907 -0.000358 118.413803 -38.496586 54.542381 761.455688
47 761.455627 -0.001907 -0.000358 120.195747 -40.422806 51.144302 761.455688
[R_Leg02]
45 1441.140625 0.000000 -0.000238 -0.370093 -0.003385 -138.199463 1441.140625
46 1441.140625 0.000000 -0.000238 -0.421199 0.004333 -141.380585 1441.140625
47 1441.140625 0.000000 -0.000238 -0.429022 0.007124 -142.756012 1441.140625
[R_Leg03]
45 1686.963989 0.000954 0.001431 0.002310 -0.000416 110.412628 1686.963989
46 1686.963989 0.000954 0.001431 0.002311 -0.000411 110.159508 1686.963989
47 1686.963989 0.000954 0.001431 -0.004581 0.000773 109.143013 1686.963989
[R_Foot]
45 3041.560059 -30.531288 -11.204481 2.510247 -5.233691 66.022430 3041.734131
46 3041.560059 -30.531288 -11.204481 2.226372 -5.590635 65.994278 3041.734131
47 3041.560059 -30.531288 -11.204481 2.213122 -6.641076 65.727325 3041.734131
[planeAlignerRight]
45 -0.859664 -812.158569 -0.361017 0.000000 -89.960434 -90.005180 812.159058
46 -0.858154 -807.729004 -0.360107 0.000000 -89.960434 -90.005180 807.729492
47 -0.857239 -795.854065 -0.358276 0.000000 -89.960434 -90.005180 795.854614
[R_Toe1_01]
45 -188.383347 -224.864899 21.052242 91.058372 1.812405 -149.171570 294.101532
46 -188.383347 -224.864899 21.052242 91.054108 1.822766 -149.570389 294.101532
47 -188.383347 -224.864899 21.052242 91.013496 1.838572 -150.613541 294.101532
[R_Toe2_01]
45 200.637817 -220.002121 -148.787384 -104.730591 9.285368 -58.576767 332.857574
46 200.637817 -220.002121 -148.787384 -104.685509 9.362267 -58.297127 332.857574
47 200.637817 -220.002121 -148.787384 -104.544319 9.595184 -57.379620 332.857574
[R_Toe3_01]
45 188.606735 -220.092957 191.126343 -70.905296 -11.288468 -60.512177 347.192566
46 188.606735 -220.092957 191.126343 -70.956413 -11.385157 -60.242100 347.192566
47 188.606735 -220.092957 191.126343 -71.133842 -11.696703 -59.306259 347.192566
[planeLockWeightRight]
45 999.999756 -0.000716 0.076023 -0.011823 -0.004379 -0.000027 999.999756
46 999.999817 -0.000705 0.076020 -0.011823 -0.004379 -0.000027 999.999817
47 999.999817 -0.000695 0.076016 -0.011823 -0.004379 -0.000027 999.999817
[R_Toe1_02]
45 413.762085 0.000477 -0.000119 0.001388 -25.434608 0.001388 413.762085
46 413.762085 0.000477 -0.000119 0.001390 -25.224380 0.001390 413.762085
47 413.762085 0.000477 -0.000119 0.001391 -25.014151 0.001391 413.762085
[R_Toe1_03]
45 464.317810 0.000000 0.001088 0.005168 63.750023 0.005168 464.317810
46 464.317810 0.000000 0.001088 0.005279 64.309937 0.005279 464.317810
47 464.317810 0.000000 0.001088 0.005589 65.758636 0.005589 464.317810
[R_Toe2_02]
45 342.234741 -0.000954 0.000238 0.001191 -70.126205 0.001191 342.234741
46 342.234741 -0.000954 0.000238 0.001191 -70.368065 0.001191 342.234741
47 342.234741 -0.000954 0.000238 0.001190 -71.185135 0.001190 342.234741
[R_Toe2_03]
45 420.210846 0.000715 -0.000268 0.013244 79.831863 0.013244 420.210846
46 420.210846 0.000715 -0.000268 0.014054 80.419922 0.014054 420.210846
47 420.210846 0.000715 -0.000268 0.016776 81.976639 0.016776 420.210846
[R_Toe3_02]
45 329.270355 -0.000477 -0.000954 0.001184 -74.661621 0.001184 329.270355
46 329.270355 -0.000477 -0.000954 0.001184 -75.038849 0.001184 329.270355
47 329.270355 -0.000477 -0.000954 0.001183 -75.416084 0.001183 329.270355
[R_Toe3_03]
45 439.137939 0.000238 0.001431 -0.012098 83.631638 -0.008596 439.137939
46 439.137939 0.000238 0.001431 -0.013053 84.170250 -0.009552 439.137939
47 439.137939 0.000238 0.001431 -0.016714 85.597717 -0.013215 439.137939
[Rear_Leg02]
45 1162.777710 -0.029802 0.005960 3.921166 -4.138957 -133.146774 1162.777710
46 1162.777710 -0.029802 0.005960 8.182687 -5.324096 -143.745438 1162.777710
47 1162.777710 -0.029802 0.005960 15.333398 -5.729122 -150.276306 1162.777710
[Rear_Leg03]
45 607.192505 -0.013351 -0.073195 0.010183 -0.005698 74.815170 607.192505
46 607.192505 -0.013351 -0.073195 0.010028 -0.005966 77.853539 607.192505
47 607.192505 -0.013351 -0.073195 0.009920 -0.006144 79.902809 607.192505
[Rear_Leg04]
45 995.874512 -0.020504 -0.011921 -0.045642 -0.016886 82.811485 995.874573
46 995.874512 -0.020504 -0.011921 -0.043527 -0.016434 92.787216 995.874573
47 995.874512 -0.020504 -0.011921 -0.044700 -0.012908 101.942680 995.874573
[Rear_Foot]
45 3096.176270 -0.067472 -0.041425 -114.931168 84.296967 15.040181 3096.176270
46 3096.176270 -0.067472 -0.041425 -85.561516 80.665314 52.485249 3096.176270
47 3096.176270 -0.067472 -0.041425 -78.498665 73.525406 69.120140 3096.176270
[planeAlignerCenter]
45 1.037655 116.904587 -813.837097 0.000009 0.000003 -179.999985 822.191345
46 4.900511 104.286079 -805.254395 0.000009 0.000003 -179.999985 811.994019
47 9.139215 88.217873 -788.009155 0.000009 0.000003 -179.999985 792.984497
[Rear_Toe1_01]
45 0.653352 83.966492 -371.173737 0.061334 30.888622 90.029327 380.553192
46 0.653352 83.966492 -371.173737 0.093268 31.745708 90.089256 380.553192
47 0.653352 83.966492 -371.173737 0.213224 37.423141 90.229774 380.553192
[Rear_Toe2_01]
45 178.200760 -294.826019 -362.060547 2.090814 54.542271 -68.322121 499.765686
46 178.200760 -294.826019 -362.060547 2.002882 53.888218 -68.433144 499.765686
47 178.200760 -294.826019 -362.060547 1.793182 52.428608 -68.679138 499.765686
[Rear_Toe3_01]
45 -153.359680 -308.780914 -362.060852 -2.509084 54.521980 -114.348396 499.952881
46 -153.359680 -308.780914 -362.060852 -2.370946 53.876968 -114.206856 499.952881
47 -153.359680 -308.780914 -362.060852 -2.142349 52.419853 -113.934891 499.952881
[planeLockWeightCenter]
45 1000.000000 0.000305 0.076246 -0.011814 -0.004373 -0.000015 1000.000000
46 843.752930 0.000305 0.076294 -0.011814 -0.004373 -0.000015 843.752930
47 500.005554 0.000305 0.076294 -0.011814 -0.004373 -0.000015 500.005554
[Rear_Toe1_02]
45 379.707825 0.194073 0.000477 -0.000767 -33.624729 0.000838 379.707855
46 379.707825 0.194073 0.000477 -0.000767 -33.624729 0.000838 379.707855
47 379.707825 0.194073 0.000477 -0.000767 -33.624729 0.000838 379.707855
[Rear_Toe1_03]
45 500.129700 0.165701 0.000119 -0.000028 52.629639 0.007355 500.129761
46 500.129700 0.165701 0.000119 -0.004872 68.584427 -0.001314 500.129761
47 500.129700 0.165701 0.000119 -0.012433 85.355057 -0.015933 500.129761
[Rear_Toe2_02]
45 340.494507 0.000238 -0.000954 0.001175 -83.580727 0.001175 340.494507
46 340.494507 0.000238 -0.000954 0.001175 -83.961647 0.001175 340.494507
47 340.494507 0.000238 -0.000954 0.001175 -84.342651 0.001175 340.494507
[Rear_Toe2_03]
45 433.103577 0.000000 0.000238 179.974838 84.650932 179.974838 433.103546
46 433.103577 0.000000 0.000238 179.977386 84.050407 179.977386 433.103546
47 433.103577 0.000000 0.000238 179.981232 82.830322 179.981232 433.103546
[Rear_Toe3_02]
45 340.494141 -0.000358 -0.000477 0.001176 -83.434845 0.001176 340.494171
46 340.494141 -0.000358 -0.000477 0.001175 -83.819435 0.001175 340.494171
47 340.494141 -0.000358 -0.000477 0.001175 -84.203972 0.001175 340.494171
[Rear_Toe3_03]
45 433.103577 0.001431 -0.000238 -179.988632 84.979141 -179.985138 433.103546
46 433.103577 0.001431 -0.000238 -179.990036 84.377014 -179.986542 433.103546
47 433.103577 0.001431 -0.000238 -179.992142 83.147461 -179.988632 433.103546
[Back_Bone]
45 1312.175781 -701.934692 0.000954 0.092866 3.184185 -80.995880 1488.125488
46 1312.175781 -701.934692 0.000954 -0.222050 3.190005 -82.812607 1488.125488
47 1312.175781 -701.934692 0.000954 -0.536994 3.185853 -84.629364 1488.125488
[Head]
45 1406.159424 809.709290 0.001431 0.907804 0.545084 25.007565 1622.625488
46 1406.159424 809.709290 0.001431 0.500095 0.686555 24.879820 1622.625488
47 1406.159424 809.709290 0.001431 0.092044 0.827115 24.751049 1622.625488
[Motor_Bone]
45 1158.364380 -417.834747 0.000477 -2.064749 -0.819210 -106.806320 1231.419434
46 1158.364380 -417.834747 0.000477 -1.940205 -0.666372 -106.653244 1231.419434
47 1158.364380 -417.834747 0.000477 -1.815256 -0.513867 -106.499825 1231.419434
[Ping_Mechanism]
45 1175.054321 -405.967102 42.397545 0.000103 -0.000053 82.120995 1243.929077
46 1175.483643 -407.091339 50.828796 0.000103 -0.000053 82.120995 1245.017578
47 1175.913086 -408.215607 59.260071 0.000103 -0.000053 82.120995 1246.163452
[BN_LookIK]
45 193.241119 1380.371704 -0.002861 0.000000 89.965736 -31.038179 1393.832153
46 193.241119 1380.371704 -0.002861 0.000000 89.965736 -31.038179 1393.832153
47 193.241119 1380.371704 -0.002861 0.000000 89.965736 -31.038179 1393.832153
[bottomMouth]
45 -435.092926 615.759399 -0.000954 -0.000022 0.000016 73.527184 753.966492
46 -435.092926 615.759399 -0.000954 -0.000022 0.000016 73.527184 753.966492
47 -435.092926 615.759399 -0.000954 -0.000022 0.000016 73.527184 753.966492
[L_Mouth01]
45 554.440979 7.658243 838.222046 150.204178 23.759130 109.605339 1005.027161
46 554.440979 7.658243 838.222046 150.204178 23.759130 109.605339 1005.027161
47 554.440979 7.658243 838.222046 150.204178 23.759130 109.605339 1005.027161
[L_mouthFront]
45 551.629089 934.514771 339.150421 0.000081 2.804060 79.119301 1136.941284
46 551.629089 934.514771 339.150421 0.000081 2.804060 79.119301 1136.941284
47 551.629089 934.514771 339.150421 0.000081 2.804060 79.119301 1136.941284
[mouthGun]
45 55.332661 1627.420898 0.000000 0.000023 0.000009 -11.038128 1628.361328
46 55.332661 1627.420898 0.000000 0.000023 0.000009 -11.038128 1628.361328
47 55.332661 1627.420898 0.000000 0.000023 0.000009 -11.038128 1628.361328
[R_Mouth01]
45 554.442383 7.659197 -838.223938 29.795891 -23.759109 109.605331 1005.029541
46 554.442383 7.659197 -838.223938 29.795891 -23.759109 109.605331 1005.029541
47 554.442383 7.659197 -838.223938 29.795891 -23.759109 109.605331 1005.029541
[R_mouthFront]
45 551.629089 934.514282 -339.151367 0.000029 -2.803930 79.119133 1136.941162
46 551.629089 934.514282 -339.151367 0.000029 -2.803930 79.119133 1136.941162
47 551.629089 934.514282 -339.151367 0.000029 -2.803930 79.119133 1136.941162
[TopMouth]
45 461.269867 -56.106091 -0.008583 -0.000059 -0.000268 92.025169 464.669525
46 461.269867 -56.106091 -0.008583 -0.000059 -0.000268 92.025169 464.669525
47 461.269867 -56.106091 -0.008583 -0.000059 -0.000268 92.025169 464.669525
[weapon_bone]
45 -987.239868 1448.372803 0.001431 0.000000 89.965736 -31.038221 1752.833740
46 -987.239868 1448.372803 0.001431 0.000000 89.965736 -31.038221 1752.833740
47 -987.239868 1448.372803 0.001431 0.000000 89.965736 -31.038221 1752.833740
